<?xml version="1.0" encoding="UTF-8"?>
<svg id="Layer_1" data-name="Layer 1" xmlns="http://www.w3.org/2000/svg" viewBox="0 0 32 32">
  <defs>
    <style>
      .cls-1 {
        fill: #1ca83c;
      }

      .cls-2 {
        fill: #fff;
      }

      .cls-3 {
        fill: #21344a;
      }

      .cls-4 {
        fill: #17a638;
      }

      .cls-5 {
        fill: #2f4055;
      }
    </style>
  </defs>
  <ellipse class="cls-2" cx="16.12" cy="16.02" rx="15.13" ry="14.94"/>
  <g>
    <path class="cls-1" d="M14.43.47c16.62-1.47,23.86,19.73,10.23,28.52C12.62,36.77-2.6,25.45,1.23,11.71,2.85,5.9,8.35,1.01,14.43.47ZM15.77,1.36C4.89,1.73-1.8,13.47,3.5,23.05c5.25,9.48,18.91,10.03,24.87.96C34.85,14.18,27.54.97,15.77,1.36Z"/>
    <path class="cls-4" d="M18.58,11.71c-.33.28-.77.59-1.06.89-1.11,1.17-1.69,3.08-1.62,4.69-1.2,0-2.13.69-3.07,1.34h-5.39c-1.06-3.68.01-7.3,2.88-9.76,3.01-2.59,7.69-2.81,10.99-.61s4.89,6.49,3.72,10.36h-5.51c-.92-.73-1.95-1.4-3.18-1.32-.02-.77.35-1.95.89-2.51.76-.79,2.19-.74,3.01-1.46s1.13-2.29,1.23-3.34c.01-.12.06-.36-.17-.28-.18.07-.55.41-.81.53-1.82.79-4.25.83-4.26,3.49.68-.8,1.2-1.71,2.23-2.12l.11.11ZM15.9,14.16c.3-2.2-2.09-3.14-3.79-3.68-.31,2.43,1.05,4.28,3.57,4.24l-.5-1.45-.78-1.11c.5.09.69.58.97.93l.54,1.08Z"/>
    <path class="cls-3" d="M9.21,21.86c1.99.02,3.66-1.41,5.55-1.86,1.31-.32,3.08-.25,4.38.13,1.21.36.64,1.01-.31,1.14s-2.83-.21-3.48.31c-.83.66.4,1.06.97,1.14,1.28.17,2.51-.03,3.71-.48.76-.29,2.6-1.45,3.26-1.37.87.11.4.55.03.98-3.19,3.76-8.84,4.39-12.76,1.38-.14-.1-1.48-1.28-1.35-1.38Z"/>
    <path class="cls-5" d="M14.46,5l-.23-2.22c.44-.08,1.58-.27,1.9.05.29.29-.02.67.02.88.04.2.51.32.26.85-.2.41-1.5.44-1.94.43ZM15.68,3.12h-.89c-.02.34-.03.57.38.55.42-.02.61-.12.52-.55ZM15.9,4.45c.08-.63-.56-.42-1-.45v.56s1-.11,1-.11Z"/>
    <path class="cls-5" d="M25.94,6.8c.28.64-.15,1.23-.11,1.9l.85-.66c.14-.03.41.24.37.38-.03.1-1.6,1.31-1.73,1.29-.48-.09.17-1.75.05-1.9-.14.26-1.48,1.1-1.22.29.03-.11,1.65-1.38,1.77-1.29Z"/>
    <path class="cls-5" d="M7.98,8.47c-.08.72-1.13.27-1.23.61-.11.39.79.42.06.92l-1.72-1.27c.27-.69,1.07-1.76,1.84-1.05.41.37.12.98,1.06.78ZM6.16,8.04c-.92.28.15,1.41.43.54.12-.38,0-.67-.43-.54Z"/>
    <path class="cls-5" d="M9.33,6.56l.65.18c-.22.59-1.39-.09-1.42.45,0,.08.52.84-.19.73-.1-.02-1.07-1.44-1.27-1.62.79-1.05,2.19-1.53,2.23.27ZM8.11,6.78c1.24-.19.53-1.56-.34-.49l.34.49Z"/>
    <path class="cls-5" d="M6.49,22.72l-.03.13,1.08-.43c0,.15.16.3.07.45-.05.08-1.68.8-1.78.78-.51-.14.29-1.3.38-1.61l-1.05.4c-.08,0-.2-.34-.13-.45.06-.1,1.67-.81,1.78-.78.47.13-.27,1.24-.31,1.53Z"/>
    <path class="cls-5" d="M29.06,12.49c-.09.44.38,1.33.17,1.68-.31.52-.59-.8-.51-1.01h-.44s.11,1.11.11,1.11h-.44c.01-.26-.04-.5-.1-.74-.04-.15.07-.31-.18-.26-.6.12-.05.88-.17,1.34h-.44s-.21-1.66-.21-1.66l2.22-.46Z"/>
    <path class="cls-5" d="M4.75,9.92c.15.14-.51,1-.33,1.22.01.01.29.1.34.07.21-.17.18-1.01.61-.84s-.33.87-.16,1.11c.01.02.4.14.44.12.21-.15.13-1.29.79-1l-.56,1.67c-.11.15-1.78-.85-2.12-.78-.08-.05.51-1.5.58-1.54.09-.06.3,0,.43-.02Z"/>
    <path class="cls-5" d="M26.69,18.97c1.69-.34,1.69,2.63,0,2.3-1.29-.25-1.03-2.09,0-2.3ZM26.41,20.6c.5.5,1.48-.11,1.03-.87-.42-.7-1.73.17-1.03.87Z"/>
    <path class="cls-5" d="M15.79,27.66c.73,0,1.85-.23,1.8.84-.02.37-.31.43-.34.57-.04.19.46.39.33.71-.64.15-.49-.54-1.06-.56-.32-.01-.12.35-.17.56h-.56v-2.12ZM17,28.12l-.77-.02v.67c.38.22,1.23-.32.77-.66Z"/>
    <path class="cls-5" d="M18.77,2.92c.16.14.49,1.96.58,2.32h-.55c.07-.48-.19-.62-.63-.66-.62-.06-.66.45-1.27.33l1.34-2.07c.1-.06.46.03.53.09ZM18.58,4.23l-.17-.78-.39.61c.03.17.5.22.56.17Z"/>
    <path class="cls-5" d="M11.9,28.23c-.13.17.32.88-.07.77-.62-.18-.25-.92-.56-1-.37-.1-.44.74-.95.16l.79-1.71c.71-.01,1.79.58,1.38,1.44-.12.25-.56.29-.6.35ZM11.51,27c-.33.09-.43.64.12.75.83.17.47-.92-.12-.75Z"/>
    <path class="cls-5" d="M23.82,7.69c-.79.05-.37-.57-.49-.78-.02-.03-.48-.38-.51-.39-.38-.17-.88.34-1-.22.03-.11,1.86-1.16,2.04-1.15.12.01.36.15.39.27l-.43,2.28ZM23.6,6.46l.11-.78-.67.34c-.01.31.28.49.56.44Z"/>
    <path class="cls-5" d="M10.32,4.06c.07-.22.36-.18.55-.11.16.06,1.67,1.34,1.68,1.45-.3.45-.63-.09-.92-.04-.04,0-.65.29-.68.31-.14.11.04.86-.63.79.12-.61-.16-1.88,0-2.4ZM11.33,5.12c.1-.15-.4-.6-.56-.67v.78s.56-.11.56-.11Z"/>
    <path class="cls-5" d="M24.49,24.76h.44s0-.37,0-.37c.29-.28.33.1.46.19.09.07.24.04.33.14.38.45-.1.32-.2.39-.17.12-.17.84-.78.96-.87.18-.57-.52-.72-.74-.04-.06-.41-.11-.55-.29-.54-.73,1.22-1.63,1.01-.29ZM24.15,24.42c-.28-.03-.38.18-.33.45h.33s0-.45,0-.45ZM25.05,25.2c-.23.03-.84-.16-.67.28.14.36.71.08.67-.28Z"/>
    <path class="cls-5" d="M6.42,18.96l.22,1.56h-.44s-.11-1-.11-1l-.45.11.11,1c-.09-.02-.3.02-.33,0-.18-.15.15-1.17-.56-.89-.16.16.46,1.24-.22,1.23l-.34-1.67,2.12-.34Z"/>
    <path class="cls-5" d="M28.39,11.48s-.31.03-.39-.11c-.14-.26.08-.65-.33-.9-.59-.37-1.25.15-1.05.82.07.22.42.33.43.58.02.71-.84-.17-.96-.61-.31-1.15,1.17-1.95,1.95-1.17.26.27.56,1.06.34,1.39Z"/>
    <path class="cls-5" d="M10.66,25.87c.08.11-.1.34-.28.34-.34,0-.66-.93-1.06-.28.23.3.75.36.67.84-.36.18-.93-.76-1.11-.28-.14.36.71.62.78.73.06.09-.07.3-.17.33-.15.04-1.27-.76-1.28-.84-.02-.21,1.02-1.55,1.2-1.6.31-.08.76.47.98.66.1.08.27.1.28.11Z"/>
    <path class="cls-5" d="M13.56,28.88l-.11.51-.46-.13.35-1.93c1.98-.24,2.48,2.09.22,1.56ZM14.43,28.53c.41-.29-.27-.82-.65-.77.03.2-.19.5-.07.67.09.13.62.16.72.09Z"/>
    <path class="cls-5" d="M22.82,25.43c.14.14-.09.33-.18.43-.13.13-.67.35-.59.52.24.53.97-.43,1.11-.28.19.53-.47.58-.54.85-.21.78.7-.06.87-.14.5-.21.42.18.11.45-.1.09-.89.63-.94.63-.17,0-.69-.79-.81-.98-.13-.2-.39-.5-.36-.75,0-.08,1.2-.88,1.35-.74Z"/>
    <path class="cls-5" d="M20.92,27.1c-.25-.1-1.2.26-.89.56.13.12,1.32-.44,1.45.28.14.78-.82,1.09-1.45,1.06v-.45c.22.05,1.07-.03,1-.39-.05-.28-.88.06-1.23-.11-.18-.09-.34-.42-.29-.62.14-.49,1.48-1.24,1.41-.33Z"/>
    <path class="cls-5" d="M25.83,21.52l.1.43c-.8.24-.69,1.3.18,1.25.7-.04.54-.96.78-1.01.56-.13.23,1.43-.68,1.56-1.5.22-1.76-1.85-.38-2.23Z"/>
    <path class="cls-5" d="M3.85,12.49l-.11.78,1.67.22v.56s-1.9-.22-1.9-.22v.56s-.45,0-.45,0c-.06-.07.2-1.66.27-1.79.09-.15.34-.1.51-.11Z"/>
    <path class="cls-5" d="M21.13,3.57c.22.3-.6,1.42-.54,1.71s1.17.2.88.84c-.1.1-1.36-.49-1.57-.62l.79-2.05s.41.1.43.12Z"/>
    <path class="cls-5" d="M8.08,23.32c.07.37.99,1.06.9,1.38-.14.54-.55-.31-.72-.27-.28.06-1.22,1.5-1.51.61l1.22-1.02-.33-.54.43-.15Z"/>
    <path class="cls-5" d="M4.16,15.96c.89-.25,1.28,1.01.48,1.27-.99.33-1.2-1.07-.48-1.27Z"/>
    <path class="cls-5" d="M27.92,15.96c1.2-.26,1,1.79-.17,1.24-.55-.26-.44-1.1.17-1.24Z"/>
    <path class="cls-5" d="M18.69,27.32l.45,2.12c-.17,0-.38.06-.5-.11-.08-.11-.43-1.81-.38-1.89.02-.03.4-.15.44-.12Z"/>
    <path class="cls-1" d="M18.47,11.59c.09-.04.15-.18.33-.11,0,.14-.15.16-.22.22l-.11-.11Z"/>
  </g>
</svg>